<?xml version="1.0" encoding="UTF-8" standalone="no"?>
<!DOCTYPE svg PUBLIC "-//W3C//DTD SVG 1.1//EN" "http://www.w3.org/Graphics/SVG/1.1/DTD/svg11.dtd">
<svg width="100%" height="100%" viewBox="0 0 1446 258" version="1.1" xmlns="http://www.w3.org/2000/svg" xmlns:xlink="http://www.w3.org/1999/xlink" xml:space="preserve" xmlns:serif="http://www.serif.com/" style="fill-rule:evenodd;clip-rule:evenodd;stroke-linejoin:round;stroke-miterlimit:2;">
    <g transform="matrix(1,0,0,1,-1468,-4989)">
        <g transform="matrix(1,0,0,1.4297,0,4061.32)">
            <g transform="matrix(1,0,0,1,166.204,-462.281)">
                <g transform="matrix(7.2981,0,0,5.10463,-9805.03,-25748.1)">
                    <path d="M1553.16,5296.53L1557.46,5296.53L1559.9,5289.39L1570.08,5289.39L1572.5,5296.53L1576.8,5296.53L1567.2,5270.11L1562.77,5270.11L1553.16,5296.53ZM1564.95,5274.49L1565.02,5274.49L1568.96,5286.1L1561,5286.1L1564.95,5274.49Z" style="fill-rule:nonzero;"/>
                </g>
                <g transform="matrix(7.2981,0,0,5.10463,-9805.03,-25748.1)">
                    <path d="M1579.71,5296.53L1583.44,5296.53L1583.44,5277.03L1583.57,5277.03L1591.54,5296.53L1594.58,5296.53L1602.54,5277.03L1602.67,5277.03L1602.67,5296.53L1606.41,5296.53L1606.41,5270.11L1601.68,5270.11L1593.11,5291.2L1593,5291.2L1584.45,5270.11L1579.71,5270.11L1579.71,5296.53Z" style="fill-rule:nonzero;"/>
                </g>
                <g transform="matrix(7.2981,0,0,5.10463,-9811.03,-25748.1)">
                    <path d="M1630.17,5296.97C1636.01,5296.97 1640.39,5293.44 1641.21,5288.18L1641.23,5288L1637.17,5288L1637.11,5288.16C1636.12,5291.52 1633.69,5293.35 1630.17,5293.35C1625.28,5293.35 1622.12,5289.43 1622.12,5283.31L1622.12,5283.3C1622.12,5277.18 1625.27,5273.3 1630.17,5273.3C1633.73,5273.3 1636.18,5275.18 1637.06,5278.28L1637.17,5278.64L1641.23,5278.64L1641.2,5278.48C1640.37,5273.26 1636,5269.67 1630.17,5269.67C1622.68,5269.67 1617.92,5274.91 1617.92,5283.3L1617.92,5283.31C1617.92,5291.7 1622.68,5296.97 1630.17,5296.97Z" style="fill-rule:nonzero;"/>
                </g>
                <g transform="matrix(7.2981,0,0,5.10463,-9811.03,-25748.1)">
                    <path d="M1652.75,5296.92C1658.26,5296.92 1661.89,5293.11 1661.89,5286.9L1661.89,5286.86C1661.89,5280.69 1658.23,5276.9 1652.73,5276.9C1647.26,5276.9 1643.61,5280.71 1643.61,5286.86L1643.61,5286.9C1643.61,5293.09 1647.22,5296.92 1652.75,5296.92ZM1652.77,5293.6C1649.67,5293.6 1647.66,5291.17 1647.66,5286.9L1647.66,5286.86C1647.66,5282.65 1649.69,5280.22 1652.73,5280.22C1655.83,5280.22 1657.84,5282.65 1657.84,5286.86L1657.84,5286.9C1657.84,5291.15 1655.86,5293.6 1652.77,5293.6Z" style="fill-rule:nonzero;"/>
                </g>
                <g transform="matrix(7.2981,0,0,5.10463,-9811.03,-25748.1)">
                    <path d="M1670.6,5296.88C1673.15,5296.88 1675.38,5295.56 1676.5,5293.49L1676.57,5293.49L1676.57,5296.53L1680.55,5296.53L1680.55,5283.26C1680.55,5279.39 1677.56,5276.9 1672.86,5276.9C1668.11,5276.9 1665.24,5279.45 1664.96,5282.76L1664.94,5282.97L1668.68,5282.97L1668.72,5282.8C1669.05,5281.26 1670.46,5280.18 1672.75,5280.18C1675.2,5280.18 1676.57,5281.46 1676.57,5283.59L1676.57,5285.03L1671.34,5285.35C1666.78,5285.62 1664.18,5287.67 1664.18,5291.02L1664.18,5291.06C1664.18,5294.52 1666.76,5296.88 1670.6,5296.88ZM1668.17,5290.97L1668.17,5290.93C1668.17,5289.3 1669.49,5288.26 1671.87,5288.11L1676.57,5287.82L1676.57,5289.32C1676.57,5291.83 1674.47,5293.71 1671.68,5293.71C1669.56,5293.71 1668.17,5292.65 1668.17,5290.97Z" style="fill-rule:nonzero;"/>
                </g>
                <g transform="matrix(7.2981,0,0,5.10463,-9811.03,-25748.1)">
                    <path d="M1692.65,5296.92C1697.28,5296.92 1700.5,5293.95 1700.92,5290.09L1700.94,5289.96L1697.13,5289.96L1697.12,5290.11C1696.64,5292.19 1695.08,5293.6 1692.65,5293.6C1689.59,5293.6 1687.56,5291.13 1687.56,5286.92L1687.56,5286.9C1687.56,5282.78 1689.55,5280.22 1692.63,5280.22C1695.21,5280.22 1696.68,5281.81 1697.1,5283.7L1697.13,5283.84L1700.91,5283.84L1700.89,5283.72C1700.56,5280.09 1697.56,5276.9 1692.59,5276.9C1687.1,5276.9 1683.51,5280.77 1683.51,5286.86L1683.51,5286.88C1683.51,5293.05 1687.03,5296.92 1692.65,5296.92Z" style="fill-rule:nonzero;"/>
                </g>
                <g transform="matrix(7.2981,0,0,5.10463,-9811.03,-25748.1)">
                    <path d="M1703.89,5296.53L1707.85,5296.53L1707.85,5285.38C1707.85,5282.38 1709.66,5280.29 1712.39,5280.29C1715.17,5280.29 1716.78,5282.2 1716.78,5285.38L1716.78,5296.53L1720.74,5296.53L1720.74,5284.63C1720.74,5279.98 1718.03,5276.9 1713.91,5276.9C1711.03,5276.9 1708.96,5278.2 1707.94,5280.44L1707.85,5280.44L1707.85,5270.11L1703.89,5270.11L1703.89,5296.53Z" style="fill-rule:nonzero;"/>
                </g>
                <g transform="matrix(2.27473,0,0,1.59105,-2043.73,-7644.78)">
                    <path d="M1539.98,5550.36L1552.25,5545.51C1546.43,5535.43 1535.54,5528.65 1520.27,5528.65C1496.18,5528.65 1480.91,5545.28 1480.91,5572.01L1480.91,5572.07C1480.91,5599.33 1496.18,5616.24 1520.44,5616.24C1543.41,5616.24 1556.98,5602.56 1556.98,5579.59L1556.98,5570.89L1544,5570.89L1544,5583.05C1543.82,5595.92 1534.31,5604.61 1520.56,5604.61C1504.4,5604.61 1494.3,5592.28 1494.3,5572.01L1494.3,5571.95C1494.3,5552.09 1504.11,5540.29 1520.33,5540.29C1529.14,5540.29 1535.82,5543.91 1539.98,5550.36Z" style="fill-rule:nonzero;"/>
                </g>
                <g transform="matrix(2.5255,-0.7826,0.786247,1.2413,-6715.71,-4328.94)">
                    <path d="M1529.63,5354.69C1529.63,5353.36 1528.87,5352.29 1527.94,5352.29L1524.56,5352.29C1523.62,5352.29 1522.87,5353.36 1522.87,5354.69L1522.87,5369.96C1522.87,5371.29 1523.62,5372.37 1524.56,5372.37L1527.94,5372.37C1528.87,5372.37 1529.63,5371.29 1529.63,5369.96L1529.63,5354.69Z"/>
                </g>
                <g transform="matrix(2.72169,-0.2456,0.250468,1.35791,-4102.38,-5781.41)">
                    <path d="M1529.63,5354.65C1529.63,5353.35 1528.87,5352.29 1527.94,5352.29L1524.56,5352.29C1523.62,5352.29 1522.87,5353.35 1522.87,5354.65L1522.87,5370C1522.87,5371.31 1523.62,5372.37 1524.56,5372.37L1527.94,5372.37C1528.87,5372.37 1529.63,5371.31 1529.63,5370L1529.63,5354.65Z"/>
                </g>
                <g transform="matrix(2.10712,-1.25826,1.26129,1.03334,-8659.73,-2472.7)">
                    <path d="M1529.63,5354.7C1529.63,5353.37 1528.87,5352.29 1527.94,5352.29L1524.56,5352.29C1523.62,5352.29 1522.87,5353.37 1522.87,5354.7L1522.87,5369.96C1522.87,5371.29 1523.62,5372.37 1524.56,5372.37L1527.94,5372.37C1528.87,5372.37 1529.63,5371.29 1529.63,5369.96L1529.63,5354.7Z"/>
                </g>
                <g transform="matrix(-2.47272,1.13178,2.31341,2.47272,1336.74,-1590.77)">
                    <g>
                        <g transform="matrix(0.170165,0.628688,-0.765165,0.101321,4429.87,-163.011)">
                            <path d="M749.629,5009.16C749.629,5007.12 748.224,5005.48 746.494,5005.48L740.225,5005.48C738.495,5005.48 737.09,5007.12 737.09,5009.16L737.09,5059.13C737.09,5061.16 738.495,5062.81 740.225,5062.81L746.494,5062.81C748.224,5062.81 749.629,5061.16 749.629,5059.13L749.629,5009.16Z"/>
                        </g>
                        <g transform="matrix(0.951583,0.0354355,-0.0496231,0.651929,-496.582,-2795.64)">
                            <path d="M1524.31,5460.36C1524.31,5466.19 1529.03,5470.92 1534.87,5470.92C1540.69,5470.92 1545.43,5466.19 1545.43,5460.36C1545.43,5457.88 1544.55,5455.48 1542.96,5453.57L1534.87,5460.36L1524.31,5460.36Z"/>
                        </g>
                    </g>
                </g>
            </g>
        </g>
    </g>
</svg>
