<?xml version="1.0" standalone="no"?>
<!DOCTYPE svg PUBLIC "-//W3C//DTD SVG 20010904//EN"
 "http://www.w3.org/TR/2001/REC-SVG-20010904/DTD/svg10.dtd">
<svg version="1.0" xmlns="http://www.w3.org/2000/svg"
 width="301.000000pt" height="301.000000pt" viewBox="0 0 301.000000 301.000000"
 preserveAspectRatio="xMidYMid meet">
<metadata>
Created by potrace 1.14, written by Peter Selinger 2001-2017
</metadata>
<g transform="translate(0.000000,301.000000) scale(0.100000,-0.100000)"
fill="#000000" stroke="none">
<path d="M267 3000 c-131 -22 -232 -122 -257 -255 -8 -43 -10 -404 -8 -1275
l3 -1215 33 -67 c38 -78 94 -129 172 -159 49 -18 91 -19 1290 -19 1222 0 1240
0 1294 20 72 27 139 88 173 158 l28 57 0 1260 0 1260 -26 55 c-47 98 -127 159
-238 180 -65 12 -2391 12 -2464 0z m1014 -156 c8 -10 23 -88 35 -183 25 -190
22 -204 -43 -214 -70 -12 -112 -8 -122 11 -5 9 -19 93 -30 186 -25 193 -25
194 51 207 72 11 95 10 109 -7z m-429 -182 c101 -225 110 -252 95 -275 -8 -12
-42 -33 -76 -46 -61 -24 -62 -24 -81 -5 -16 17 -126 253 -144 310 -9 30 12 51
78 78 76 31 88 25 128 -62z m-455 -169 c27 -24 185 -211 207 -245 13 -21 15
-31 7 -47 -16 -29 -95 -91 -117 -91 -21 0 -63 41 -163 159 -110 130 -111 133
-30 199 58 47 68 50 96 25z m1218 -258 c191 -35 332 -105 454 -226 51 -52 128
-156 120 -163 -2 -1 -67 -28 -144 -59 l-140 -55 -62 67 c-104 114 -240 171
-409 171 -115 0 -187 -16 -282 -61 -154 -74 -260 -214 -314 -414 -18 -68 -22
-108 -22 -275 -1 -172 2 -206 22 -285 65 -256 216 -423 433 -481 83 -22 242
-22 329 0 196 49 340 191 378 371 20 93 25 185 10 185 -7 0 -107 -29 -223 -65
-115 -36 -219 -65 -231 -65 -43 0 -71 36 -103 133 -38 112 -40 155 -8 185 16
16 198 76 607 203 321 99 596 181 611 181 56 2 75 -23 116 -149 49 -154 52
-239 10 -325 -73 -149 -244 -216 -395 -155 l-62 24 -4 -31 c-3 -17 -8 -54 -11
-82 -26 -237 -151 -449 -335 -569 -217 -142 -544 -181 -826 -99 -338 98 -560
367 -630 764 -22 127 -22 373 0 500 65 373 279 639 596 741 52 17 119 34 150
38 92 14 280 12 365 -4z"/>
</g>
</svg>
