<?xml version="1.0" encoding="UTF-8" standalone="no"?>
<!DOCTYPE svg PUBLIC "-//W3C//DTD SVG 1.1//EN" "http://www.w3.org/Graphics/SVG/1.1/DTD/svg11.dtd">
<svg width="100%" height="100%" viewBox="0 0 1165 303" version="1.1" xmlns="http://www.w3.org/2000/svg" xmlns:xlink="http://www.w3.org/1999/xlink" xml:space="preserve" xmlns:serif="http://www.serif.com/" style="fill-rule:evenodd;clip-rule:evenodd;stroke-linejoin:round;stroke-miterlimit:2;">
    <g transform="matrix(1,0,0,1,-10784,-6820)">
        <g transform="matrix(1,0,0,1.4297,10485,4061.32)">
            <g id="icon-gt" transform="matrix(3.7712,0,0,2.63775,202.471,1867.54)">
                <g transform="matrix(1,0,0,1,176.311,103.039)">
                    <path d="M0,-34.452L27.258,-34.452C27.595,-34.452 27.764,-34.283 27.764,-33.946L27.764,-25.839C27.764,-25.501 27.595,-25.332 27.258,-25.332L22.901,-25.332C22.563,-25.332 22.394,-25.501 22.394,-25.839L22.394,-28.879C22.394,-29.082 22.292,-29.183 22.09,-29.183L16.922,-29.183C16.72,-29.183 16.618,-29.082 16.618,-28.879L16.618,-5.269C16.618,-5.066 16.72,-4.965 16.922,-4.965L19.557,-4.965C19.894,-4.965 20.064,-4.796 20.064,-4.459L20.064,-0.506C20.064,-0.168 19.894,0 19.557,0L7.701,0C7.363,0 7.194,-0.168 7.194,-0.506L7.194,-4.459C7.194,-4.796 7.363,-4.965 7.701,-4.965L10.336,-4.965C10.538,-4.965 10.64,-5.066 10.64,-5.269L10.64,-28.879C10.64,-29.082 10.538,-29.183 10.336,-29.183L5.168,-29.183C4.965,-29.183 4.864,-29.082 4.864,-28.879L4.864,-25.839C4.864,-25.501 4.695,-25.332 4.357,-25.332L0,-25.332C-0.338,-25.332 -0.507,-25.501 -0.507,-25.839L-0.507,-33.946C-0.507,-34.283 -0.338,-34.452 0,-34.452" style="fill:white;fill-rule:nonzero;"/>
                </g>
                <g transform="matrix(1,0,0,1,212.569,98.7832)">
                    <path d="M0,-15.909C-2.5,-15.909 -4.104,-14.862 -4.813,-12.768C-5.016,-12.16 -5.117,-11.468 -5.117,-10.691C-5.117,-10.488 -5.016,-10.386 -4.813,-10.386L4.763,-10.386C4.965,-10.386 5.066,-10.488 5.066,-10.691C5.066,-11.468 4.965,-12.16 4.763,-12.768C4.425,-13.747 3.833,-14.516 2.989,-15.073C2.144,-15.63 1.148,-15.909 0,-15.909M-0.051,-20.722C2.449,-20.722 4.577,-20.122 6.333,-18.924C8.089,-17.724 9.305,-16.078 9.981,-13.983C10.521,-12.328 10.791,-9.88 10.791,-6.638C10.791,-6.3 10.605,-6.131 10.234,-6.131L-4.813,-6.131C-5.016,-6.131 -5.117,-6.029 -5.117,-5.827C-5.117,-5.219 -4.999,-4.593 -4.763,-3.952C-3.919,-1.486 -2.095,-0.253 0.709,-0.253C3.107,-0.253 5.016,-1.03 6.435,-2.584C6.705,-2.854 6.958,-2.888 7.194,-2.685L10.184,-0.051C10.42,0.151 10.437,0.388 10.234,0.659C7.87,3.428 4.526,4.813 0.203,4.813C-2.365,4.813 -4.535,4.213 -6.308,3.014C-8.081,1.816 -9.306,0.151 -9.981,-1.976C-10.556,-3.766 -10.842,-5.759 -10.842,-7.955C-10.842,-10.285 -10.573,-12.295 -10.032,-13.983C-9.356,-16.112 -8.132,-17.766 -6.358,-18.949C-4.585,-20.131 -2.483,-20.722 -0.051,-20.722" style="fill:white;fill-rule:nonzero;"/>
                </g>
                <g transform="matrix(1,0,0,1,237.651,103.596)">
                    <path d="M0,-25.535C3.377,-25.535 6.181,-24.893 8.41,-23.61C8.68,-23.474 8.816,-23.255 8.816,-22.951L8.816,-17.378C8.816,-17.04 8.647,-16.872 8.309,-16.872L4.003,-16.872C3.665,-16.872 3.496,-17.04 3.496,-17.378L3.496,-19.607C3.496,-19.742 3.411,-19.861 3.243,-19.962C2.567,-20.299 1.537,-20.469 0.152,-20.469C-2.483,-20.469 -4.154,-19.405 -4.864,-17.276C-5.202,-16.263 -5.37,-14.76 -5.37,-12.767C-5.37,-10.74 -5.202,-9.221 -4.864,-8.207C-4.154,-6.113 -2.483,-5.066 0.152,-5.066C1.604,-5.066 2.635,-5.218 3.243,-5.522C3.411,-5.59 3.496,-5.708 3.496,-5.877L3.496,-8.157C3.496,-8.494 3.665,-8.663 4.003,-8.663L8.309,-8.663C8.647,-8.663 8.816,-8.494 8.816,-8.157L8.816,-2.533C8.816,-2.229 8.68,-2.009 8.41,-1.874C6.012,-0.625 3.209,0 0,0C-5.506,0 -8.967,-2.195 -10.386,-6.586C-10.893,-8.107 -11.146,-10.166 -11.146,-12.767C-11.146,-15.267 -10.893,-17.276 -10.386,-18.796C-9.677,-20.958 -8.419,-22.622 -6.612,-23.787C-4.805,-24.952 -2.601,-25.535 0,-25.535" style="fill:white;fill-rule:nonzero;"/>
                </g>
                <g transform="matrix(1,0,0,1,250.138,103.039)">
                    <path d="M0,-34.452L7.65,-34.452C7.987,-34.452 8.157,-34.283 8.157,-33.946L8.157,-22.14L8.208,-22.14C9.525,-24.032 11.635,-24.978 14.541,-24.978C17.074,-24.978 19.109,-24.133 20.646,-22.445C22.182,-20.755 22.951,-18.576 22.951,-15.909L22.951,-5.269C22.951,-5.066 23.052,-4.965 23.255,-4.965L25.332,-4.965C25.67,-4.965 25.839,-4.796 25.839,-4.459L25.839,-0.506C25.839,-0.168 25.67,0 25.332,0L14.794,0C14.456,0 14.287,-0.168 14.287,-0.506L14.287,-4.459C14.287,-4.796 14.456,-4.965 14.794,-4.965L16.972,-4.965C17.175,-4.965 17.277,-5.066 17.277,-5.269L17.277,-14.592C17.277,-16.213 16.888,-17.505 16.111,-18.467C15.334,-19.43 14.203,-19.911 12.717,-19.911C11.264,-19.911 10.141,-19.43 9.348,-18.467C8.553,-17.505 8.157,-16.213 8.157,-14.592L8.157,-5.269C8.157,-5.066 8.258,-4.965 8.461,-4.965L10.639,-4.965C10.977,-4.965 11.146,-4.796 11.146,-4.459L11.146,-0.506C11.146,-0.168 10.977,0 10.639,0L0,0C-0.338,0 -0.507,-0.168 -0.507,-0.506L-0.507,-4.459C-0.507,-4.796 -0.338,-4.965 0,-4.965L2.178,-4.965C2.381,-4.965 2.483,-5.066 2.483,-5.269L2.483,-29.183C2.483,-29.386 2.381,-29.487 2.178,-29.487L0,-29.487C-0.338,-29.487 -0.507,-29.656 -0.507,-29.993L-0.507,-33.946C-0.507,-34.283 -0.338,-34.452 0,-34.452" style="fill:white;fill-rule:nonzero;"/>
                </g>
                <g transform="matrix(1,0,0,1,282.292,98.4604)">
                    <path d="M0,4.212C-1.106,4.212 -2.001,3.284 -2.001,2.101C-2.001,0.94 -1.106,0.001 -0.011,0.001L0,0.001C1.105,0.001 1.99,0.94 1.99,2.112C1.99,3.284 1.105,4.224 0,4.212M0,-0.387L-0.011,-0.387C-1.371,-0.387 -2.476,0.719 -2.476,2.101C-2.476,3.504 -1.371,4.599 -0.011,4.599C1.359,4.599 2.443,3.504 2.443,2.101C2.443,0.719 1.359,-0.387 0,-0.387" style="fill:white;fill-rule:nonzero;"/>
                </g>
                <g transform="matrix(1,0,0,1,282.137,100.705)">
                    <path d="M0,-0.232L-0.32,-0.232L-0.32,-1.172C-0.243,-1.183 -0.144,-1.195 0,-1.195C0.498,-1.195 0.675,-0.951 0.675,-0.707C0.675,-0.365 0.365,-0.232 0,-0.232M0.597,-0.056L0.597,-0.077C0.895,-0.165 1.139,-0.387 1.139,-0.752C1.139,-1.017 1.05,-1.205 0.884,-1.327C0.719,-1.448 0.443,-1.536 0.022,-1.536C-0.31,-1.536 -0.531,-1.504 -0.763,-1.47L-0.763,1.304L-0.32,1.304L-0.32,0.11L-0.011,0.11C0.343,0.11 0.52,0.243 0.585,0.597C0.641,0.962 0.707,1.216 0.774,1.304L1.238,1.304C1.194,1.216 1.127,1.05 1.061,0.619C1.006,0.211 0.84,-0.011 0.597,-0.056" style="fill:white;fill-rule:nonzero;"/>
                </g>
                <g transform="matrix(1,0,0,1,183.627,59.4351)">
                    <path d="M0,-35.567C2.094,-35.567 4.095,-35.254 6.004,-34.629C7.912,-34.004 9.44,-33.203 10.589,-32.223C10.825,-32.02 10.944,-31.784 10.944,-31.514L10.944,-25.434C10.944,-25.096 10.774,-24.928 10.437,-24.928L5.877,-24.928C5.539,-24.928 5.37,-25.096 5.37,-25.434L5.37,-28.423C5.37,-28.592 5.302,-28.728 5.168,-28.829C3.783,-29.74 2.009,-30.196 -0.152,-30.196C-3.868,-30.196 -6.249,-28.659 -7.296,-25.586C-7.836,-23.897 -8.106,-21.262 -8.106,-17.683C-8.106,-13.865 -7.887,-11.264 -7.448,-9.88C-6.941,-8.393 -6.139,-7.271 -5.041,-6.511C-3.944,-5.751 -2.399,-5.371 -0.405,-5.371C2.094,-5.371 3.969,-5.776 5.219,-6.586C5.556,-6.789 5.725,-7.059 5.725,-7.397L5.725,-14.136C5.725,-14.339 5.624,-14.44 5.421,-14.44L-0.051,-14.44C-0.389,-14.44 -0.557,-14.608 -0.557,-14.946L-0.557,-18.999C-0.557,-19.337 -0.389,-19.507 -0.051,-19.507L10.994,-19.507C11.332,-19.507 11.501,-19.337 11.501,-18.999L11.501,-4.459C11.501,-3.952 11.281,-3.547 10.842,-3.243C7.836,-1.081 4.053,0 -0.507,0C-7.296,0 -11.569,-2.685 -13.325,-8.056C-13.899,-9.779 -14.186,-12.987 -14.186,-17.683C-14.186,-22.107 -13.866,-25.282 -13.224,-27.207C-11.434,-32.781 -7.026,-35.567 0,-35.567" style="fill:white;fill-rule:nonzero;"/>
                </g>
                <g transform="matrix(1,0,0,1,210.412,54.622)">
                    <path d="M0,-15.909C-2.5,-15.909 -4.104,-14.862 -4.813,-12.768C-5.016,-12.16 -5.117,-11.468 -5.117,-10.691C-5.117,-10.488 -5.016,-10.386 -4.813,-10.386L4.763,-10.386C4.965,-10.386 5.066,-10.488 5.066,-10.691C5.066,-11.468 4.965,-12.16 4.763,-12.768C4.425,-13.747 3.833,-14.516 2.989,-15.073C2.144,-15.63 1.148,-15.909 0,-15.909M-0.051,-20.722C2.449,-20.722 4.577,-20.122 6.333,-18.924C8.089,-17.724 9.305,-16.078 9.981,-13.983C10.521,-12.328 10.791,-9.88 10.791,-6.638C10.791,-6.3 10.605,-6.131 10.234,-6.131L-4.813,-6.131C-5.016,-6.131 -5.117,-6.029 -5.117,-5.827C-5.117,-5.219 -4.999,-4.593 -4.763,-3.952C-3.919,-1.486 -2.095,-0.253 0.709,-0.253C3.107,-0.253 5.016,-1.03 6.435,-2.584C6.705,-2.854 6.958,-2.888 7.194,-2.685L10.184,-0.051C10.42,0.151 10.437,0.388 10.234,0.659C7.87,3.428 4.526,4.813 0.203,4.813C-2.365,4.813 -4.535,4.213 -6.308,3.014C-8.081,1.815 -9.306,0.151 -9.981,-1.976C-10.556,-3.766 -10.842,-5.759 -10.842,-7.955C-10.842,-10.285 -10.573,-12.295 -10.032,-13.983C-9.356,-16.112 -8.132,-17.766 -6.358,-18.949C-4.585,-20.131 -2.483,-20.722 -0.051,-20.722" style="fill:white;fill-rule:nonzero;"/>
                </g>
                <g transform="matrix(1,0,0,1,235.959,54.3692)">
                    <path d="M0,-15.403C-2.399,-15.403 -3.935,-14.339 -4.61,-12.211C-4.949,-11.13 -5.117,-9.627 -5.117,-7.702C-5.117,-5.743 -4.949,-4.239 -4.61,-3.193C-3.868,-1.064 -2.331,-0.001 0,-0.001C2.297,-0.001 3.816,-1.064 4.56,-3.193C4.897,-4.239 5.066,-5.743 5.066,-7.702C5.066,-9.627 4.897,-11.13 4.56,-12.211C3.884,-14.339 2.364,-15.403 0,-15.403M0,-20.469C2.465,-20.469 4.585,-19.878 6.358,-18.697C8.132,-17.513 9.355,-15.859 10.032,-13.731C10.572,-12.076 10.842,-10.066 10.842,-7.702C10.842,-5.338 10.572,-3.327 10.032,-1.673C9.355,0.455 8.132,2.11 6.358,3.292C4.585,4.475 2.465,5.066 0,5.066C-2.5,5.066 -4.636,4.475 -6.409,3.292C-8.182,2.11 -9.407,0.455 -10.082,-1.673C-10.623,-3.327 -10.893,-5.338 -10.893,-7.702C-10.893,-10.066 -10.623,-12.076 -10.082,-13.731C-9.407,-15.859 -8.182,-17.513 -6.409,-18.697C-4.636,-19.878 -2.5,-20.469 0,-20.469" style="fill:white;fill-rule:nonzero;"/>
                </g>
                <g transform="matrix(1,0,0,1,264.655,58.8776)">
                    <path d="M0,-24.775C0.811,-24.775 1.604,-24.69 2.381,-24.522C2.718,-24.453 2.888,-24.285 2.888,-24.016L2.888,-19.607C2.888,-19.168 2.685,-18.999 2.28,-19.101C0.827,-19.37 -0.169,-19.506 -0.71,-19.506C-4.357,-19.506 -6.181,-17.411 -6.181,-13.224L-6.181,-5.269C-6.181,-5.066 -6.08,-4.965 -5.877,-4.965L-3.496,-4.965C-3.159,-4.965 -2.989,-4.796 -2.989,-4.459L-2.989,-0.506C-2.989,-0.168 -3.159,0 -3.496,0L-14.338,0C-14.676,0 -14.845,-0.168 -14.845,-0.506L-14.845,-4.459C-14.845,-4.796 -14.676,-4.965 -14.338,-4.965L-12.16,-4.965C-11.957,-4.965 -11.856,-5.066 -11.856,-5.269L-11.856,-19.151C-11.856,-19.354 -11.957,-19.455 -12.16,-19.455L-14.338,-19.455C-14.676,-19.455 -14.845,-19.624 -14.845,-19.962L-14.845,-23.914C-14.845,-24.251 -14.676,-24.42 -14.338,-24.42L-6.688,-24.42C-6.351,-24.42 -6.181,-24.251 -6.181,-23.914L-6.181,-21.381L-6.131,-21.381C-4.746,-23.643 -2.703,-24.775 0,-24.775" style="fill:white;fill-rule:nonzero;"/>
                </g>
                <g transform="matrix(1,0,0,1,280.248,63.5204)">
                    <path d="M0,-24.522C-2.196,-24.522 -3.632,-23.491 -4.307,-21.431C-4.679,-20.35 -4.864,-19.016 -4.864,-17.429C-4.864,-15.774 -4.679,-14.439 -4.307,-13.427C-3.632,-11.331 -2.196,-10.285 0,-10.285C2.229,-10.285 3.681,-11.331 4.357,-13.427C4.728,-14.439 4.914,-15.774 4.914,-17.429C4.914,-19.016 4.728,-20.35 4.357,-21.431C3.681,-23.491 2.229,-24.522 0,-24.522M-1.469,-29.588C1.536,-29.588 3.648,-28.626 4.864,-26.701L4.914,-26.701L4.914,-28.525C4.914,-28.862 5.083,-29.031 5.421,-29.031L13.072,-29.031C13.408,-29.031 13.578,-28.862 13.578,-28.525L13.578,-24.572C13.578,-24.234 13.408,-24.066 13.072,-24.066L10.893,-24.066C10.69,-24.066 10.589,-23.965 10.589,-23.762L10.589,-6.13C10.589,-2.584 9.618,0.169 7.676,2.128C5.733,4.087 2.904,5.066 -0.811,5.066C-2.533,5.066 -4.214,4.737 -5.852,4.078C-7.491,3.42 -8.765,2.533 -9.677,1.418C-9.88,1.182 -9.863,0.945 -9.627,0.709L-6.637,-2.28C-6.402,-2.551 -6.148,-2.551 -5.878,-2.28C-4.29,-0.76 -2.517,0 -0.557,0C3.09,0 4.914,-1.943 4.914,-5.827L4.914,-8.106L4.864,-8.106C3.648,-6.215 1.536,-5.269 -1.469,-5.269C-3.53,-5.269 -5.269,-5.776 -6.688,-6.789C-8.106,-7.803 -9.137,-9.271 -9.778,-11.197C-10.319,-12.852 -10.589,-14.929 -10.589,-17.429C-10.589,-19.894 -10.319,-21.955 -9.778,-23.61C-8.495,-27.595 -5.725,-29.588 -1.469,-29.588" style="fill:white;fill-rule:nonzero;"/>
                </g>
                <g transform="matrix(1,0,0,1,300.06,58.8776)">
                    <path d="M0,-34.452L4.661,-34.452C4.998,-34.452 5.168,-34.283 5.168,-33.946L5.168,-29.538C5.168,-29.2 4.998,-29.031 4.661,-29.031L0,-29.031C-0.338,-29.031 -0.507,-29.2 -0.507,-29.538L-0.507,-33.946C-0.507,-34.283 -0.338,-34.452 0,-34.452M-2.989,-24.42L4.661,-24.42C4.998,-24.42 5.168,-24.251 5.168,-23.914L5.168,-5.269C5.168,-5.067 5.269,-4.965 5.472,-4.965L7.65,-4.965C7.987,-4.965 8.157,-4.796 8.157,-4.459L8.157,-0.506C8.157,-0.168 7.987,0 7.65,0L-2.989,0C-3.327,0 -3.496,-0.168 -3.496,-0.506L-3.496,-4.459C-3.496,-4.796 -3.327,-4.965 -2.989,-4.965L-0.811,-4.965C-0.608,-4.965 -0.507,-5.067 -0.507,-5.269L-0.507,-19.151C-0.507,-19.354 -0.608,-19.455 -0.811,-19.455L-2.989,-19.455C-3.327,-19.455 -3.496,-19.624 -3.496,-19.962L-3.496,-23.914C-3.496,-24.251 -3.327,-24.42 -2.989,-24.42" style="fill:white;fill-rule:nonzero;"/>
                </g>
                <g transform="matrix(1,0,0,1,325.635,44.945)">
                    <path d="M0,3.445L-3.952,3.445C-7.431,3.445 -9.171,4.56 -9.171,6.789C-9.171,8.85 -7.786,9.88 -5.016,9.88C-1.469,9.88 0.304,8.495 0.304,5.725L0.304,3.749C0.304,3.546 0.202,3.445 0,3.445M-4.459,-11.045C-0.778,-11.045 1.832,-10.386 3.369,-9.07C4.906,-7.752 5.674,-5.573 5.674,-2.534L5.674,8.663C5.674,8.866 5.776,8.968 5.978,8.968L8.157,8.968C8.494,8.968 8.664,9.137 8.664,9.474L8.664,13.426C8.664,13.764 8.494,13.933 8.157,13.933L0.912,13.933C0.574,13.933 0.405,13.764 0.405,13.426L0.405,11.652L0.355,11.652C-0.963,13.545 -3.226,14.49 -6.435,14.49C-8.799,14.49 -10.75,13.848 -12.286,12.565C-13.824,11.281 -14.592,9.424 -14.592,6.992C-14.592,4.391 -13.739,2.441 -12.033,1.139C-10.328,-0.16 -7.938,-0.811 -4.864,-0.811L0,-0.811C0.202,-0.811 0.304,-0.912 0.304,-1.115L0.304,-2.078C0.304,-3.563 -0.059,-4.644 -0.785,-5.32C-1.512,-5.995 -2.821,-6.333 -4.712,-6.333C-5.591,-6.333 -6.469,-6.232 -7.347,-6.029C-7.516,-5.995 -7.6,-5.877 -7.6,-5.675L-7.6,-3.496C-7.6,-3.158 -7.769,-2.99 -8.106,-2.99L-12.515,-2.99C-12.853,-2.99 -13.021,-3.158 -13.021,-3.496L-13.021,-8.664C-13.021,-8.968 -12.886,-9.187 -12.616,-9.323C-10.218,-10.471 -7.499,-11.045 -4.459,-11.045" style="fill:white;fill-rule:nonzero;"/>
                </g>
                <g transform="matrix(1,0,0,1,137.949,98.8116)">
                    <path d="M0,3.846C-1.01,3.846 -1.827,2.998 -1.827,1.918C-1.827,0.858 -1.01,0.001 -0.01,0.001L0,0.001C1.009,0.001 1.817,0.858 1.817,1.928C1.817,2.998 1.009,3.857 0,3.846M0,-0.353L-0.01,-0.353C-1.252,-0.353 -2.261,0.656 -2.261,1.918C-2.261,3.2 -1.252,4.199 -0.01,4.199C1.241,4.199 2.231,3.2 2.231,1.918C2.231,0.656 1.241,-0.353 0,-0.353" style="fill:rgb(170,152,94);fill-rule:nonzero;"/>
                </g>
                <g transform="matrix(1,0,0,1,137.808,100.861)">
                    <path d="M0,-0.212L-0.292,-0.212L-0.292,-1.071C-0.222,-1.08 -0.131,-1.091 0,-1.091C0.454,-1.091 0.616,-0.868 0.616,-0.646C0.616,-0.334 0.334,-0.212 0,-0.212M0.545,-0.051L0.545,-0.071C0.817,-0.151 1.04,-0.353 1.04,-0.687C1.04,-0.928 0.959,-1.101 0.807,-1.212C0.656,-1.323 0.404,-1.403 0.02,-1.403C-0.283,-1.403 -0.485,-1.373 -0.696,-1.342L-0.696,1.191L-0.292,1.191L-0.292,0.1L-0.01,0.1C0.313,0.1 0.475,0.222 0.535,0.545C0.586,0.878 0.646,1.111 0.706,1.191L1.13,1.191C1.09,1.111 1.029,0.959 0.969,0.565C0.918,0.192 0.767,-0.01 0.545,-0.051" style="fill:rgb(170,152,94);fill-rule:nonzero;"/>
                </g>
                <g transform="matrix(1,0,0,1,66.0395,24.3656)">
                    <path d="M0,-0.002L-0.169,-0.002C-0.078,-0.002 0.013,0 0.104,0C0.07,0 0.035,-0.002 0,-0.002" style="fill:rgb(170,152,94);fill-rule:nonzero;"/>
                </g>
                <g transform="matrix(1,0,0,1,66.0395,102.435)">
                    <path d="M0,-78.071C0.035,-78.071 0.07,-78.069 0.104,-78.069C0.013,-78.069 -0.078,-78.071 -0.169,-78.071L0,-78.071M10.495,-53.223L10.495,-33.395L21.128,-33.395L22.249,-39.342L27.033,-39.342C25.281,-30.273 16.263,-24 4.825,-24C4.043,-24 3.248,-24.031 2.462,-24.091C-3.868,-24.58 -9.69,-26.62 -13.934,-29.835C-18.61,-33.38 -21.069,-38.12 -21.045,-43.545C-21.018,-49.384 -18.54,-54.783 -14.068,-58.747C-9.788,-62.54 -4.074,-64.774 2.021,-65.038C2.402,-65.054 2.791,-65.062 3.177,-65.062C10.324,-65.062 17.994,-62.255 23.693,-57.553C23.982,-57.313 24.051,-57.263 24.122,-57.214C24.155,-57.192 24.199,-57.161 24.529,-56.885L24.695,-56.747L24.91,-56.747L36.904,-56.742L36.904,-78.079L24.529,-78.079L24.529,-71.962C19.317,-75.3 10.405,-78.665 0,-78.665L-0.171,-78.665C-11.486,-78.625 -22.506,-73.996 -30.405,-65.966C-36.847,-59.417 -40.338,-51.408 -40.235,-43.413C-40.123,-34.816 -35.981,-26.808 -28.572,-20.862C-21.482,-15.173 -11.874,-11.91 -2.211,-11.91C-1.017,-11.91 0.192,-11.959 1.381,-12.056C10.951,-12.834 19.434,-15.017 25.426,-18.228L25.407,-15.584L38.551,-15.584L38.551,-39.33L43.089,-39.33L43.089,-11.792L36.241,-11.792L36.241,0.594L66.808,0.594L66.808,-11.792L59.958,-11.792L59.958,-39.342L75.438,-39.342L76.516,-33.395L87.203,-33.395L87.203,-53.223L10.495,-53.223Z" style="fill:rgb(170,152,94);fill-rule:nonzero;"/>
                </g>
            </g>
        </g>
    </g>
</svg>
