<?xml version="1.0" encoding="UTF-8" standalone="no"?>
<!DOCTYPE svg PUBLIC "-//W3C//DTD SVG 1.1//EN" "http://www.w3.org/Graphics/SVG/1.1/DTD/svg11.dtd">
<svg width="100%" height="100%" viewBox="0 0 116 117" version="1.1" xmlns="http://www.w3.org/2000/svg" xmlns:xlink="http://www.w3.org/1999/xlink" xml:space="preserve" xmlns:serif="http://www.serif.com/" style="fill-rule:evenodd;clip-rule:evenodd;stroke-linejoin:round;stroke-miterlimit:2;">
    <g transform="matrix(1,0,0,1,-1293,-4242)">
        <g transform="matrix(1,0,0,1.4297,0,4061.32)">
            <g transform="matrix(4.27604,0,0,4.27604,-4958.17,-987.625)">
                <g transform="matrix(0,0.699446,-1,0,1488.99,260.612)">
                    <path d="M13.5,0C20.957,0 27,6.043 27,13.5C27,20.953 20.957,27 13.5,27C6.047,27 0,20.953 0,13.5C0,6.043 6.047,0 13.5,0" style="fill:rgb(255,204,77);fill-rule:nonzero;"/>
                </g>
                <g transform="matrix(1,0,0,-0.699446,1461.99,279.951)">
                    <path d="M4.5,17.898C4.086,17.898 3.75,18.234 3.75,18.648C3.75,19.062 4.082,19.398 4.496,19.398C4.613,19.398 7.172,19.464 9.148,22.097C9.398,22.425 9.867,22.496 10.199,22.246C10.531,21.996 10.598,21.527 10.348,21.195C7.902,17.937 4.637,17.898 4.5,17.898ZM22.5,17.898C22.363,17.898 19.098,17.937 16.648,21.199C16.398,21.531 16.469,22 16.797,22.25C17.129,22.5 17.598,22.429 17.848,22.101C19.828,19.46 22.395,19.402 22.504,19.402C22.918,19.398 23.25,19.058 23.246,18.648C23.246,18.234 22.91,17.902 22.5,17.902L22.5,17.898ZM4.5,11.148C4.273,11.148 4.047,11.25 3.898,11.449C3.648,11.781 3.719,12.25 4.047,12.5C4.152,12.582 6.262,14.136 9.188,14.699C7.336,15.628 5.277,15.648 5.25,15.648C4.836,15.648 4.5,15.984 4.5,16.398C4.5,16.812 4.836,17.148 5.25,17.148C5.414,17.148 9.34,17.121 11.781,14.679C11.996,14.464 12.059,14.144 11.945,13.863C11.828,13.582 11.555,13.402 11.254,13.402C7.793,13.402 4.98,11.324 4.953,11.3C4.816,11.199 4.66,11.152 4.504,11.152L4.5,11.148ZM22.5,11.148C22.344,11.148 22.188,11.195 22.051,11.296C22.023,11.32 19.191,13.398 15.75,13.398C15.445,13.398 15.172,13.582 15.059,13.859C14.941,14.14 15.008,14.46 15.223,14.675C17.66,17.121 21.586,17.148 21.75,17.148C22.164,17.148 22.5,16.812 22.5,16.398C22.5,15.984 22.164,15.648 21.754,15.648C21.727,15.648 19.668,15.628 17.809,14.699C20.738,14.136 22.844,12.582 22.949,12.5C23.281,12.25 23.348,11.781 23.102,11.453C22.953,11.257 22.73,11.152 22.5,11.152L22.5,11.148ZM13.5,5.148C13.273,5.148 13.059,5.25 12.914,5.429L10.52,8.421L8.852,6.199C8.723,6.023 8.523,5.918 8.305,5.902C8.086,5.886 7.875,5.964 7.723,6.121L6.973,6.871C6.68,7.164 6.68,7.636 6.973,7.929C7.266,8.222 7.738,8.222 8.031,7.929L8.172,7.789L9.898,10.097C10.039,10.285 10.254,10.394 10.488,10.398C10.711,10.406 10.941,10.296 11.086,10.117L13.5,7.097L15.914,10.117C16.059,10.296 16.277,10.398 16.512,10.398C16.746,10.394 16.961,10.285 17.102,10.097L18.832,7.789L18.973,7.929C19.266,8.222 19.738,8.222 20.031,7.929C20.324,7.636 20.324,7.164 20.031,6.871L19.281,6.121C19.129,5.968 18.922,5.886 18.699,5.902C18.484,5.918 18.281,6.027 18.152,6.199L16.484,8.425L14.09,5.433C13.945,5.253 13.73,5.152 13.504,5.152L13.5,5.148Z" style="fill:rgb(102,69,0);fill-rule:nonzero;"/>
                </g>
            </g>
        </g>
    </g>
</svg>
