<?xml version="1.0" encoding="UTF-8" standalone="no"?>
<!DOCTYPE svg PUBLIC "-//W3C//DTD SVG 1.1//EN" "http://www.w3.org/Graphics/SVG/1.1/DTD/svg11.dtd">
<svg width="100%" height="100%" viewBox="0 0 112 112" version="1.1" xmlns="http://www.w3.org/2000/svg" xmlns:xlink="http://www.w3.org/1999/xlink" xml:space="preserve" xmlns:serif="http://www.serif.com/" style="fill-rule:evenodd;clip-rule:evenodd;stroke-linejoin:round;stroke-miterlimit:2;">
    <g transform="matrix(1,0,0,1,-9785,-4586)">
        <g transform="matrix(1.94752,0,0,1.4297,3914.67,4125.68)">
            <g id="Medium-M" transform="matrix(0.513474,0,0,0.699446,3009.92,387.469)">
                <path d="M31.043,12.611C32.193,13.498 33.48,13.813 34.905,13.557C36.33,13.302 37.858,12.584 39.491,11.404L64.89,-7.273L90.311,11.404C91.95,12.584 93.481,13.302 94.906,13.557C96.331,13.813 97.618,13.498 98.768,12.611C99.912,11.757 100.604,10.619 100.845,9.198C101.086,7.776 100.873,6.113 100.208,4.208L90.17,-25.636L115.796,-44.052C117.461,-45.225 118.618,-46.452 119.268,-47.732C119.919,-49.012 120.017,-50.336 119.562,-51.705C119.112,-53.047 118.25,-54.049 116.977,-54.711C115.703,-55.373 114.046,-55.687 112.005,-55.655L80.576,-55.451L71.027,-85.459C70.393,-87.408 69.571,-88.887 68.559,-89.898C67.546,-90.909 66.323,-91.415 64.89,-91.415C63.477,-91.415 62.265,-90.909 61.252,-89.898C60.24,-88.887 59.417,-87.408 58.785,-85.459L49.234,-55.451L17.797,-55.655C15.763,-55.687 14.108,-55.373 12.834,-54.711C11.56,-54.049 10.698,-53.05 10.249,-51.714C9.794,-50.345 9.893,-49.02 10.547,-47.737C11.2,-46.454 12.356,-45.225 14.014,-44.052L39.641,-25.636L29.603,4.208C28.937,6.113 28.726,7.776 28.97,9.198C29.214,10.619 29.905,11.757 31.043,12.611Z" style="fill-rule:nonzero;"/>
            </g>
        </g>
    </g>
</svg>
