<?xml version="1.0" encoding="UTF-8" standalone="no"?>
<!DOCTYPE svg PUBLIC "-//W3C//DTD SVG 1.1//EN" "http://www.w3.org/Graphics/SVG/1.1/DTD/svg11.dtd">
<svg width="100%" height="100%" viewBox="0 0 301 301" version="1.1" xmlns="http://www.w3.org/2000/svg" xmlns:xlink="http://www.w3.org/1999/xlink" xml:space="preserve" xmlns:serif="http://www.serif.com/" style="fill-rule:evenodd;clip-rule:evenodd;stroke-linejoin:round;stroke-miterlimit:2;">
    <g transform="matrix(1,0,0,1,-12044,-4892)">
        <g transform="matrix(1,0,0,1.4297,10485,4061.32)">
            <g id="gamcoach-icon">
                <g transform="matrix(1.74081,0,0,1.2176,276.489,-6263.23)">
                    <path d="M909.14,5647.55C909.14,5633.05 897.366,5621.27 882.865,5621.27L763.081,5621.27C748.579,5621.27 736.806,5633.05 736.806,5647.55L736.806,5767.33C736.806,5781.83 748.579,5793.61 763.081,5793.61L882.865,5793.61C897.366,5793.61 909.14,5781.83 909.14,5767.33L909.14,5647.55Z" style="fill:rgb(0,77,63);"/>
                </g>
                <g transform="matrix(1.07994,0,0,0.737643,-11460,-3033.28)">
                    <path d="M12265.2,5088.34C12263.6,5134.19 12235.3,5161.36 12188.3,5161.36C12137.2,5161.36 12105,5125.7 12105,5068.26L12105,5068.13C12105,5011.8 12137.2,4976.77 12187.9,4976.77C12220.1,4976.77 12243.1,4991.05 12255.3,5012.3L12229.5,5022.52C12220.7,5008.92 12206.6,5001.28 12188,5001.28C12153.9,5001.28 12133.2,5026.16 12133.2,5068.01L12133.2,5068.13C12133.2,5110.85 12154.5,5136.85 12188.5,5136.85C12217.5,5136.85 12237.6,5118.52 12237.9,5091.41L12237.9,5085.45L12199.9,5097.21C12195.8,5098.49 12191.4,5096.17 12190.1,5092.03L12185.5,5077.03C12184.2,5072.89 12186.5,5068.49 12190.7,5067.21L12292.4,5035.71C12296.6,5034.43 12301,5036.75 12302.3,5040.89L12306.9,5055.73C12311.7,5067.86 12307,5082.17 12295.2,5089.24C12285.5,5095.06 12273.8,5094.33 12265.2,5088.34ZM12135.1,4935.9L12146.2,4961.01C12147.2,4963.19 12146.2,4965.75 12144,4966.72L12136.1,4970.22C12133.9,4971.19 12131.4,4970.2 12130.4,4968.02L12119.3,4942.91C12118.3,4940.73 12119.3,4938.17 12121.5,4937.2L12129.4,4933.7C12131.6,4932.73 12134.1,4933.72 12135.1,4935.9ZM12176.3,4927.06L12179.9,4954.65C12180.2,4957.01 12178.5,4959.16 12176.2,4959.46L12167.7,4960.56C12165.3,4960.87 12163.1,4959.2 12162.8,4956.85L12159.3,4929.26C12159,4926.9 12160.6,4924.75 12163,4924.45L12171.5,4923.35C12173.9,4923.04 12176,4924.71 12176.3,4927.06ZM12097.8,4955.89L12115.6,4976.78C12117.2,4978.6 12117,4981.34 12115.2,4982.89L12108.6,4988.52C12106.7,4990.08 12104,4989.86 12102.5,4988.04L12084.6,4967.15C12083.1,4965.33 12083.3,4962.59 12085.1,4961.04L12091.7,4955.41C12093.5,4953.85 12096.3,4954.07 12097.8,4955.89Z" style="fill:white;"/>
                </g>
            </g>
        </g>
    </g>
</svg>
